<mxfile host="app.diagrams.net" modified="2021-07-20T11:19:24.825Z" agent="5.0 (Macintosh; Intel Mac OS X 10_15_7) AppleWebKit/537.36 (KHTML, like Gecko) Chrome/91.0.4472.114 Safari/537.36" etag="V1YOzFNfpnBRT-jH48p9" version="14.9.0" type="github">
  <diagram id="EcNi1XYmPza-5Aud69Se" name="Page-1">
    <mxGraphModel dx="1183" dy="768" grid="1" gridSize="10" guides="1" tooltips="1" connect="1" arrows="1" fold="1" page="1" pageScale="1" pageWidth="850" pageHeight="1100" math="0" shadow="0">
      <root>
        <mxCell id="0" />
        <mxCell id="1" parent="0" />
        <mxCell id="rwcBPF3rHgq_r1tV8a8L-1" value="START&lt;br&gt;" style="rounded=1;whiteSpace=wrap;html=1;" vertex="1" parent="1">
          <mxGeometry x="130" y="40" width="120" height="60" as="geometry" />
        </mxCell>
        <mxCell id="rwcBPF3rHgq_r1tV8a8L-3" value="" style="endArrow=none;html=1;" edge="1" parent="1">
          <mxGeometry width="50" height="50" relative="1" as="geometry">
            <mxPoint x="189.5" y="160" as="sourcePoint" />
            <mxPoint x="189.5" y="100" as="targetPoint" />
          </mxGeometry>
        </mxCell>
        <mxCell id="rwcBPF3rHgq_r1tV8a8L-4" value="year %4 ==0" style="rhombus;whiteSpace=wrap;html=1;" vertex="1" parent="1">
          <mxGeometry x="125" y="160" width="130" height="100" as="geometry" />
        </mxCell>
        <mxCell id="rwcBPF3rHgq_r1tV8a8L-6" value="" style="endArrow=classic;html=1;" edge="1" parent="1">
          <mxGeometry width="50" height="50" relative="1" as="geometry">
            <mxPoint x="125" y="210" as="sourcePoint" />
            <mxPoint x="80" y="260" as="targetPoint" />
            <Array as="points">
              <mxPoint x="80" y="210" />
            </Array>
          </mxGeometry>
        </mxCell>
        <mxCell id="rwcBPF3rHgq_r1tV8a8L-7" value="" style="endArrow=classic;html=1;exitX=1;exitY=0.5;exitDx=0;exitDy=0;" edge="1" parent="1" source="rwcBPF3rHgq_r1tV8a8L-4">
          <mxGeometry width="50" height="50" relative="1" as="geometry">
            <mxPoint x="335" y="210" as="sourcePoint" />
            <mxPoint x="360" y="260" as="targetPoint" />
            <Array as="points">
              <mxPoint x="360" y="210" />
              <mxPoint x="360" y="260" />
              <mxPoint x="360" y="250" />
            </Array>
          </mxGeometry>
        </mxCell>
        <mxCell id="rwcBPF3rHgq_r1tV8a8L-8" value="not divisible" style="rounded=1;whiteSpace=wrap;html=1;fillColor=#f8cecc;strokeColor=#b85450;" vertex="1" parent="1">
          <mxGeometry x="20" y="260" width="120" height="60" as="geometry" />
        </mxCell>
        <mxCell id="rwcBPF3rHgq_r1tV8a8L-9" value="year%100 ==0" style="rhombus;whiteSpace=wrap;html=1;" vertex="1" parent="1">
          <mxGeometry x="300" y="260" width="110" height="100" as="geometry" />
        </mxCell>
        <mxCell id="rwcBPF3rHgq_r1tV8a8L-10" value="" style="endArrow=classic;html=1;" edge="1" parent="1">
          <mxGeometry width="50" height="50" relative="1" as="geometry">
            <mxPoint x="300" y="310" as="sourcePoint" />
            <mxPoint x="255" y="360" as="targetPoint" />
            <Array as="points">
              <mxPoint x="255" y="310" />
            </Array>
          </mxGeometry>
        </mxCell>
        <mxCell id="rwcBPF3rHgq_r1tV8a8L-11" value="" style="endArrow=classic;html=1;exitX=1;exitY=0.5;exitDx=0;exitDy=0;" edge="1" parent="1">
          <mxGeometry width="50" height="50" relative="1" as="geometry">
            <mxPoint x="410" y="310" as="sourcePoint" />
            <mxPoint x="505" y="360" as="targetPoint" />
            <Array as="points">
              <mxPoint x="505" y="310" />
              <mxPoint x="505" y="350" />
            </Array>
          </mxGeometry>
        </mxCell>
        <mxCell id="rwcBPF3rHgq_r1tV8a8L-12" value="no" style="text;html=1;align=center;verticalAlign=middle;resizable=0;points=[];autosize=1;strokeColor=none;" vertex="1" parent="1">
          <mxGeometry x="45" y="200" width="30" height="20" as="geometry" />
        </mxCell>
        <mxCell id="rwcBPF3rHgq_r1tV8a8L-13" value="not leap" style="rounded=1;whiteSpace=wrap;html=1;arcSize=34;fillColor=#d5e8d4;strokeColor=#82b366;" vertex="1" parent="1">
          <mxGeometry x="200" y="360" width="110" height="50" as="geometry" />
        </mxCell>
        <mxCell id="rwcBPF3rHgq_r1tV8a8L-14" value="not leap" style="rounded=1;whiteSpace=wrap;html=1;fillColor=#f8cecc;strokeColor=#b85450;" vertex="1" parent="1">
          <mxGeometry x="340" y="460" width="110" height="50" as="geometry" />
        </mxCell>
        <mxCell id="rwcBPF3rHgq_r1tV8a8L-15" value="yes" style="text;html=1;align=center;verticalAlign=middle;resizable=0;points=[];autosize=1;strokeColor=none;" vertex="1" parent="1">
          <mxGeometry x="310" y="190" width="30" height="20" as="geometry" />
        </mxCell>
        <mxCell id="rwcBPF3rHgq_r1tV8a8L-17" style="edgeStyle=orthogonalEdgeStyle;rounded=0;orthogonalLoop=1;jettySize=auto;html=1;exitX=0;exitY=0.5;exitDx=0;exitDy=0;" edge="1" parent="1" source="rwcBPF3rHgq_r1tV8a8L-16" target="rwcBPF3rHgq_r1tV8a8L-14">
          <mxGeometry relative="1" as="geometry" />
        </mxCell>
        <mxCell id="rwcBPF3rHgq_r1tV8a8L-18" style="edgeStyle=orthogonalEdgeStyle;rounded=0;orthogonalLoop=1;jettySize=auto;html=1;exitX=1;exitY=0.5;exitDx=0;exitDy=0;" edge="1" parent="1" source="rwcBPF3rHgq_r1tV8a8L-16">
          <mxGeometry relative="1" as="geometry">
            <mxPoint x="620" y="470" as="targetPoint" />
          </mxGeometry>
        </mxCell>
        <mxCell id="rwcBPF3rHgq_r1tV8a8L-16" value="year%400 ==0" style="rhombus;whiteSpace=wrap;html=1;" vertex="1" parent="1">
          <mxGeometry x="450" y="360" width="110" height="100" as="geometry" />
        </mxCell>
        <mxCell id="rwcBPF3rHgq_r1tV8a8L-19" value="leap" style="rounded=1;whiteSpace=wrap;html=1;fillColor=#d5e8d4;strokeColor=#82b366;" vertex="1" parent="1">
          <mxGeometry x="570" y="470" width="110" height="50" as="geometry" />
        </mxCell>
        <mxCell id="rwcBPF3rHgq_r1tV8a8L-20" value="yes" style="text;html=1;align=center;verticalAlign=middle;resizable=0;points=[];autosize=1;strokeColor=none;" vertex="1" parent="1">
          <mxGeometry x="455" y="280" width="30" height="20" as="geometry" />
        </mxCell>
        <mxCell id="rwcBPF3rHgq_r1tV8a8L-21" value="no&lt;br&gt;" style="text;html=1;align=center;verticalAlign=middle;resizable=0;points=[];autosize=1;strokeColor=none;" vertex="1" parent="1">
          <mxGeometry x="245" y="270" width="30" height="20" as="geometry" />
        </mxCell>
      </root>
    </mxGraphModel>
  </diagram>
</mxfile>
